<?xml version="1.0"?>
<svg xmlns="http://www.w3.org/2000/svg" viewBox="0 0 1000 1000">
	<path d="M263.51 659.89a36.68 36.68 0 1 1 36.67-36.67 36.66 36.66 0 0 1-36.67 36.67m-.23-103.41a66.73 66.73 0 1 0 66.48 66.74 66.62 66.62 0 0 0-66.48-66.74"
	      class="cls-1" />
	<path d="M263.29 614.37a8.84 8.84 0 1 0 8.8 8.84 8.82 8.82 0 0 0-8.8-8.84" class="cls-1" />
	<path d="M278.2 625.87h4.22a19.39 19.39 0 0 1-3.72 9l-3-3a2.65 2.65 0 0 0-3.76 3.74l3 3a19.08 19.08 0 0 1-9 3.78v-4.3a2.65 2.65 0 1 0-5.3 0v4.3a19.07 19.07 0 0 1-9-3.78l3-3a2.65 2.65 0 0 0-3.76-3.74l-3 3a19.39 19.39 0 0 1-3.72-9h4.22a2.65 2.65 0 1 0 0-5.3h-4.22a19.39 19.39 0 0 1 3.72-9l3 3a2.67 2.67 0 0 0 3.76 0 2.68 2.68 0 0 0 0-3.76l-3-3a19.19 19.19 0 0 1 9-3.77v4.29a2.65 2.65 0 0 0 5.3 0V604a19.25 19.25 0 0 1 9 3.77l-3 3a2.65 2.65 0 0 0 3.74 3.76l3-3a19.39 19.39 0 0 1 3.72 9h-4.2a2.65 2.65 0 1 0 0 5.3m4.29-18.1l4-4a2.65 2.65 0 1 0-3.74-3.74l-4 4a24.42 24.42 0 0 0-12.8-5.36V593a2.65 2.65 0 0 0-5.3 0v5.59a24.51 24.51 0 0 0-12.83 5.41l-4-4a2.65 2.65 0 1 0-3.74 3.74l4 4a24.72 24.72 0 0 0-5.29 12.8h-5.67a2.65 2.65 0 1 0 0 5.3h5.67a24.6 24.6 0 0 0 5.29 12.79l-4 4a2.65 2.65 0 0 0 1.86 4.53 2.7 2.7 0 0 0 1.88-.77l4-4a24.47 24.47 0 0 0 12.81 5.35v5.59a2.65 2.65 0 1 0 5.3 0v-5.59a24.36 24.36 0 0 0 12.8-5.35l4 4a2.7 2.7 0 0 0 1.88.77 2.65 2.65 0 0 0 1.86-4.53l-4-4a24.65 24.65 0 0 0 5.29-12.8h5.67a2.65 2.65 0 1 0 0-5.3h-5.67a24.61 24.61 0 0 0-5.29-12.8M701 659.89a36.68 36.68 0 1 1 36.68-36.67A36.67 36.67 0 0 1 701 659.89m-.21-103.41a66.73 66.73 0 1 0 66.5 66.74 66.62 66.62 0 0 0-66.5-66.74"
	      class="cls-1" />
	<path d="M700.78 614.37a8.84 8.84 0 1 0 8.8 8.84 8.82 8.82 0 0 0-8.8-8.84" class="cls-1" />
	<path d="M715.7 625.87h4.21a19.26 19.26 0 0 1-3.72 9l-3-3a2.65 2.65 0 0 0-3.76 3.74l3 3a19.13 19.13 0 0 1-9 3.78v-4.3a2.65 2.65 0 1 0-5.3 0v4.3a19.07 19.07 0 0 1-9-3.78l3-3a2.65 2.65 0 0 0-3.76-3.74l-3 3a19.39 19.39 0 0 1-3.72-9h4.22a2.65 2.65 0 1 0 0-5.3h-4.22a19.39 19.39 0 0 1 3.72-9l3 3a2.66 2.66 0 0 0 3.76-3.76l-3-3a19.19 19.19 0 0 1 9-3.77v4.29a2.65 2.65 0 0 0 5.3 0V604a19.25 19.25 0 0 1 9 3.77l-3 3a2.65 2.65 0 0 0 0 3.76 2.65 2.65 0 0 0 3.74 0l3-3a19.26 19.26 0 0 1 3.72 9h-4.19a2.65 2.65 0 1 0 0 5.3m4.28-18.1l4-4a2.65 2.65 0 1 0-3.74-3.74l-4 4a24.51 24.51 0 0 0-12.81-5.36V593a2.65 2.65 0 0 0-5.3 0v5.59a24.51 24.51 0 0 0-12.81 5.41l-4-4a2.65 2.65 0 1 0-3.76 3.74l4 4a24.62 24.62 0 0 0-5.3 12.8h-5.67a2.65 2.65 0 0 0 0 5.3h5.67a24.51 24.51 0 0 0 5.3 12.79l-4 4a2.65 2.65 0 0 0 1.86 4.53 2.73 2.73 0 0 0 1.89-.77l4-4a24.55 24.55 0 0 0 12.83 5.35v5.59a2.65 2.65 0 1 0 5.3 0v-5.59a24.4 24.4 0 0 0 12.81-5.35l4 4a2.7 2.7 0 0 0 1.88.77 2.65 2.65 0 0 0 1.86-4.53l-4-4a24.65 24.65 0 0 0 5.29-12.8h5.67a2.65 2.65 0 1 0 0-5.3h-5.67a24.61 24.61 0 0 0-5.29-12.8"
	      class="cls-1" />
	<path d="M814.51 472.35h-98.82a3.7 3.7 0 0 1-3.69-3.68l-.08-125.91a5.23 5.23 0 0 1 1.57-3.74 5 5 0 0 1 3.8-1.48c61.41 1.48 88.26 5.67 98.8 8a5.23 5.23 0 0 1 4.1 5.12l.08 115.88a5.76 5.76 0 0 1-5.75 5.77m41.2 68.05c-9.46-1.09-22.43-2.41-30.54-2.49a4.51 4.51 0 0 1-2.54-.75 4.7 4.7 0 0 1-1.81-5.5 4.55 4.55 0 0 1 4.4-3c3.44 0 7.91.27 13.31.69a4.44 4.44 0 0 0 3.36-1.12 4.49 4.49 0 0 0 1.52-3.22c3-82.63-4.69-168.73-7.89-194.93a9.93 9.93 0 0 0-8-8.55C733.7 303.56 521.76 311 470.66 315.3a5.18 5.18 0 0 0-4.76 5.18v16.26a5.2 5.2 0 0 0 5.59 5.19c12.21-1 57.72-2.14 107.9-3.05v92.23a6.5 6.5 0 1 0 13 0v-92.45c36.56-.61 74.26-1.08 102.42-1.24a4.13 4.13 0 0 1 2.62 1c.92.76 1.65 1.13 1 19.67-1 25.27-2.17 94.08-2.45 110.65a3.67 3.67 0 0 1-3.69 3.61c-6 0-18.1-.07-27.17 0a1.61 1.61 0 0 1-1.53-2.12c5.23-15.74 20.54-54.92 23.19-61.87a3.52 3.52 0 0 0-3.32-4.77H668a3.48 3.48 0 0 0-3.16 1.94c-4.36 8.76-22.58 56.28-25.31 63.9a4.16 4.16 0 0 1-3.9 2.74l-100.72.11a1.6 1.6 0 0 1-1.07-2.05c5.22-15.74 20.54-54.92 23.18-61.87a3.5 3.5 0 0 0-.4-3.25 3.54 3.54 0 0 0-2.9-1.52h-15.51a3.48 3.48 0 0 0-3.16 1.94c-4.36 8.76-22.58 56.28-25.31 63.9a4.14 4.14 0 0 1-3.89 2.74l-51 .05a4.2 4.2 0 0 1-2.33-1.5c-2.94-3.88-9.46-25.12-13.92-37.6a4.11 4.11 0 0 0-4.06-2.72c-2.68.13-7.15.47-13.61 1.36 1-4.08 5-20.71 10.39-38.82a7.74 7.74 0 0 0-14.79-4.56c-5.09 16.1-8.63 29.94-10.68 38-.53 2.09-1 3.76-1.29 4.94-4.42 18.2-4.38 28.23-4.37 28.65a4.64 4.64 0 0 1-9.28.17c0-.29-.09-7.31 2.25-20a3.7 3.7 0 0 0-4.2-4.34c-137.49 20.9-206 39.6-206.57 39.86-1.88.85-4.81 2.68-4.61 6.83l-9.24 3.12a12.92 12.92 0 0 0-8.25 8.35 101.3 101.3 0 0 0-4.57 23.3 3.81 3.81 0 0 0 1 2.9 3.62 3.62 0 0 0 3.62 1c10.71-2.89 44.32-5.3 46.29-5.75a4.64 4.64 0 0 1 2.1 9c-.27.07-43.58 7-62.42 11a7.76 7.76 0 0 0-5.81 6.9c-.21 6.45 1.48 15.2 1.48 15.2a2.87 2.87 0 0 0 3.56 2.8 75.3 75.3 0 0 1 9-1.64 1.55 1.55 0 0 1 1.72 1.56 109.36 109.36 0 0 0 1.28 16.93 2.88 2.88 0 0 0 1.33 2 2.93 2.93 0 0 0 2.42.29c2.21-.72 27.6-1.27 29.28-1.64a2.81 2.81 0 0 0 1.73-1.2A84.67 84.67 0 0 1 347 609.7a6.46 6.46 0 0 0 6.41 5.44l263-.09.07-.6a84.69 84.69 0 0 1 154.41-39.1 4.3 4.3 0 0 0 3.57 1.92h80.78a4.3 4.3 0 0 0 4.3-4.3v-28.29a4.3 4.3 0 0 0-3.8-4.28"
	      class="cls-1" />
	<path d="M811.8 389.64l-16.37-6.45a2.8 2.8 0 0 0-3.64 1.57L770.43 439a4.32 4.32 0 0 1-4 2.73H725a4 4 0 0 0-4 4v15.2a4 4 0 0 0 4 4h57.21a4.31 4.31 0 0 0 4-2.74l27.17-68.88a2.82 2.82 0 0 0-1.59-3.64"
	      class="cls-1" />
</svg>