<?xml version="1.0"?>
<svg xmlns="http://www.w3.org/2000/svg" height="512px" viewBox="-10 0 512 512" width="512px"><g><path d="m479.425781 165.214844c-.15625-.132813-.316406-.261719-.480469-.386719-5.476562-4.101563-11.953124-6.351563-18.78125-6.53125-.027343 0-.054687 0-.078124 0-.105469-.003906-.210938-.003906-.3125-.007813-.035157 0-.070313 0-.101563 0-.128906-.003906-.257813-.003906-.386719-.003906 0 0 0 0-.003906 0h-69.976562l-110.230469-103.65625c2.726562-5.179687 4.273437-11.078125 4.273437-17.328125 0-20.570312-16.734375-37.300781-37.300781-37.300781s-37.300781 16.730469-37.300781 37.300781c0 6.25 1.546875 12.148438 4.277344 17.328125l-110.230469 103.65625h-69.976563c-.003906 0-.003906 0-.003906 0-.125 0-.253906 0-.378906.003906-.039063 0-.078125 0-.117188 0-.09375 0-.1875.003907-.285156.007813-.035156 0-.066406 0-.101562 0-.125.003906-.253907.007813-.378907.011719-6.472656.246094-12.644531 2.367187-17.917969 6.175781-.121093.085937-.238281.175781-.355468.269531-8.050782 5.984375-13.277344 15.566406-13.277344 26.351563v288.078125c-.00390625 18.09375 14.71875 32.816406 32.816406 32.816406h426.800782c6.933593 0 13.566406-2.144531 19.183593-6.199219.699219-.5 1.320313-1.085937 1.859375-1.738281 7-6.023438 11.441406-14.941406 11.441406-24.878906v-288.078125c-.003906-10.507813-4.96875-19.878907-12.675781-25.890625zm-36.167969 278.039062c1.25-2.917968 1.941407-6.128906 1.941407-9.5v-197.222656c0-3.308594-.667969-6.464844-1.875-9.34375l28.746093-36.941406c.019532.28125.027344.570312.027344.855468v288.078126c0 .363281-.011718.722656-.042968 1.078124zm-423.199218 37.175782c-.039063-.410157-.0625-.828126-.0625-1.246094v-288.078125c0-.496094.027344-.984375.082031-1.460938l28.882813 37.113281c-1.328126 2.988282-2.066407 6.296876-2.066407 9.773438v197.222656c0 3.417969.714844 6.671875 1.996094 9.621094zm195.664062-103.117188c4.332032 5.183594 8.515625 10.617188 12.558594 15.867188.164062.214843.328125.425781.492188.636718.019531.027344.035156.050782.054687.074219.03125.039063.058594.078125.085937.113281.355469.460938.710938.921875 1.066407 1.382813.027343.035156.050781.066406.078125.097656.261718.34375.527344.6875.792968 1.027344.132813.171875.265626.34375.398438.515625.554688.714844 1.109375 1.433594 1.664062 2.148437.011719.011719.023438.027344.03125.039063.082032.105468.167969.210937.25.316406.011719.019531.023438.035156.039063.054688.480469.617187.964844 1.234374 1.449219 1.851562.011718.015625.027344.03125.039062.046875.085938.109375.171875.21875.257813.328125.011719.011719.019531.023438.027343.035156.089844.113282.175782.222656.265626.335938.011718.015625.023437.027344.03125.042968.484374.613282.972656 1.226563 1.464843 1.839844.019531.027344.042969.050782.0625.078125.078125.097657.15625.195313.234375.292969.011719.015625.023438.03125.035156.046875.089844.105469.175782.214844.261719.324219.015625.019531.03125.039062.046875.054687.082032.101563.160156.203125.242188.304688.019531.019531.035156.042969.050781.0625.082031.101562.164063.203125.246094.304687.023437.027344.042969.050782.0625.078125.074219.085938.144531.175781.214843.265625.027344.03125.054688.0625.078126.097656.09375.113282.1875.226563.28125.339844v.003906c.300781.367188.601562.738282.90625 1.105469.011718.015625.023437.027344.035156.042969.183594.222656.367187.449219.550781.671875.03125.039063.0625.074219.09375.113281.066406.078125.132813.160156.199219.238282.03125.039062.066406.078124.097656.117187.066406.082031.132812.164063.199219.242187.035156.039063.066406.082032.101562.121094.070313.085938.140625.167969.210938.25.027343.035156.050781.066406.078125.097656l.234375.28125c.023437.023438.042969.050782.066406.078126.082031.097656.167969.199218.25.296874.015625.019532.035156.039063.050781.058594.203125.242188.410156.484375.613282.726563.003906.003906.003906.007812.007812.007812.09375.109375.183594.21875.277344.328125.03125.039063.066406.074219.097656.113282.078125.089843.152344.179687.230469.269531.015625.015625.03125.035156.046875.054687.082031.09375.160156.1875.242187.28125.03125.039063.066407.074219.097657.113282.066406.078124.136718.160156.203124.238281.035157.039062.066407.074219.101563.113281.066406.082031.136719.160156.207031.242188.03125.039062.066406.078124.101563.113281.082031.101562.167969.199219.253906.296875.011719.011718.019531.023437.03125.03125.09375.109375.1875.214844.28125.324218.011719.015626.023437.027344.039063.042969.3125.355469.625.710938.9375 1.066407.023437.027343.046874.054687.074218.082031.074219.082031.148438.167969.226563.253906.039062.042969.078125.089844.117187.132813.0625.070312.128906.144531.191406.214843.042969.046875.085938.09375.125.140625.066407.070313.125.136719.191407.207032.039062.042968.078125.085937.113281.128906.070312.078125.136719.152344.207031.226562.035157.042969.074219.082032.109375.125.074219.078125.144532.15625.214844.234375.03125.035157.0625.070313.097656.101563.074219.082031.144532.164062.21875.242187.035156.039063.070313.078125.105469.117188.089844.09375.175781.191406.265625.289062.015625.015625.027344.03125.042969.042969.214843.234375.429687.46875.648437.703125.015625.019531.035156.039063.054688.058594.085937.089843.171875.183593.257812.277343.03125.035157.066406.070313.097656.101563.074219.082031.152344.164063.226563.242187.035156.039063.070313.074219.105469.113282.070312.074218.140625.144531.207031.21875.042969.042968.082031.085937.121094.128906.074219.078125.148437.15625.222656.234375.03125.035156.0625.066406.09375.097656.070313.078125.144531.152344.21875.230469.039063.042969.078125.085938.121094.125.066406.070312.132812.140625.199219.210938.042968.042968.085937.085937.128906.128906.078125.082031.152344.164062.230468.242187l.089844.089844c.214844.226563.433594.449219.652344.671875.035156.035156.066406.066406.101562.097656.078126.082032.160157.167969.242188.25.027344.027344.050781.054688.078125.078125.085937.085938.167969.167969.25.253907.039063.035156.074219.074218.113281.113281.070313.070312.144532.144531.214844.214843.039062.039063.078125.078126.113281.113282.082031.082031.160157.160156.238281.238281.035157.03125.070313.066406.105469.101563.066407.070312.136719.136718.203125.203124.050782.050782.097656.097657.148438.148438.066406.0625.132812.128906.199218.195312.042969.042969.085938.082032.128907.125.074219.074219.152343.148438.226562.21875.039063.039063.074219.074219.113281.113282.230469.222656.457032.441406.6875.664062.015626.011719.03125.03125.046876.042969l.292968.28125c.03125.03125.0625.058594.09375.089844.085938.082031.171875.164062.257813.246093.035156.03125.066406.0625.101562.09375.078125.074219.152344.144532.230469.21875.046875.042969.09375.085938.140625.132813.066406.0625.132813.125.203125.1875.050781.046875.101562.09375.152344.144531.0625.058594.128906.117188.191406.175782.054688.046874.105469.097656.160156.144531.070313.066406.144532.132812.214844.199219.039062.039062.078125.074218.121094.109374.09375.089844.195312.179688.292968.269532.015626.015625.035157.03125.050782.050781.117187.105469.234375.210937.351562.316406.003906.003907.007813.007813.011719.007813.117187.109375.234375.214844.355469.324218.03125.027344.066406.058594.097656.085938.089844.082031.175781.160156.265625.238281.035156.03125.066406.058594.101563.089844.082031.074219.167968.148437.253906.226563.039062.035156.082031.070312.121094.105468.082031.074219.167968.148438.25.222656.039062.03125.074218.0625.109374.09375.085938.074219.167969.148438.25.21875.039063.035157.082032.070313.125.109376.082032.070312.164063.140624.246094.214843.039063.03125.074219.0625.113282.097657.089843.078124.179687.15625.273437.230468.027344.027344.0625.054688.09375.082032.101563.089843.207031.179687.308594.265624.019531.015626.035156.03125.054687.046876.105469.089843.210938.179687.316406.269531.023438.019531.042969.035156.066407.054687.121093.101563.242187.207032.367187.308594.023438.019531.046875.039062.070313.058594.105469.089844.207031.175781.3125.261718.023437.019532.046875.039063.070312.058594.097657.082032.199219.164063.300781.246094.035157.03125.070313.058594.105469.089844.097657.078125.1875.152344.28125.230468.03125.023438.0625.050782.09375.074219.09375.078125.191407.15625.285157.234375.035156.027344.070312.054688.105468.082032.09375.078124.183594.152343.277344.226562.039062.027344.074219.058594.113281.089844.089844.070312.183594.144531.273438.21875.035156.027344.074219.058594.109375.085937.105468.082031.207031.164063.308594.246094.023437.015625.046874.035156.070312.054687.117188.09375.238281.183594.355469.277344.011719.011719.023437.019532.039062.03125.261719.207032.53125.414063.800781.617188.003907.003906.007813.007812.011719.011718.121094.09375.242188.1875.363281.28125.035157.023438.070313.050782.101563.074219.109375.082031.214844.164063.320313.242188.015624.015625.035156.027343.054687.039062.109375.085938.222656.171875.335937.253907.03125.023437.0625.046874.09375.070312.097657.070312.195313.144531.296876.21875.039062.03125.074218.058594.113281.085938.101562.074218.203125.152343.308593.226562.027344.019531.054688.042969.085938.0625.121094.089844.242188.175781.363281.265625.011719.007813.019531.015625.03125.023437.6875.496094 1.378907.988282 2.078125 1.476563.03125.023437.066406.042969.097656.066406.105469.074219.214844.148438.320313.222657.035156.023437.066406.042968.101563.066406.109374.074218.21875.148437.328124.222656.027344.023438.058594.042969.089844.0625.113282.078125.230469.15625.347656.234375.023438.019531.046876.035156.074219.050781.125.085938.25.167969.375.253906.015625.007813.03125.019532.042969.027344.140625.097656.285156.191406.429688.285156h-199.617188c19.734375-41.476562 49.484375-86.3125 78.085938-96.042968 9.152343-3.113282 17.671874-2.441406 26.046874 2.050781 18.097657 9.710937 29.980469 22.316406 39.214844 33.359375zm20.035156-7.078125c7.835938-10.765625 28.199219-32.773437 59.644532-25.363281 15.03125 3.546875 22.9375 13.734375 32.945312 26.632812 16.582032 21.367188 37 47.691406 96.851563 48.667969v13.578125c0 2.3125-1.882813 4.191406-4.191407 4.191406h-87.039062c-.011719-.003906-.027344-.003906-.039062-.003906-.121094-.011719-.242188-.027344-.363282-.039062-.074218-.007813-.144531-.015626-.214844-.023438-.136718-.011719-.273437-.027344-.410156-.042969-.054687-.007812-.109375-.011719-.164062-.019531-.132813-.011719-.261719-.027344-.390625-.042969-.066407-.003906-.128907-.011719-.195313-.019531-.125-.015625-.246094-.027344-.371094-.042969-.066406-.007812-.136718-.015625-.207031-.023437-.132812-.015625-.261719-.03125-.390625-.046875-.058594-.007813-.113281-.011719-.167968-.019531-.148438-.019532-.296876-.035157-.445313-.054688-.039063-.003906-.082031-.007812-.121094-.015625-.152343-.019531-.308593-.039063-.464843-.058594-.03125-.003906-.0625-.007812-.097657-.011719-.144531-.015624-.289062-.035156-.4375-.054687-.042969-.007813-.089843-.011719-.132812-.019531-.152344-.019532-.304688-.039063-.457031-.058594-.03125-.003906-.0625-.007812-.09375-.011719-.152344-.023437-.304688-.042969-.457032-.0625-.035156-.003906-.070312-.011719-.105468-.015625-.140626-.019531-.28125-.039062-.425782-.058594-.042968-.007812-.089844-.011718-.136718-.019531-.144532-.019531-.285157-.039062-.425782-.0625-.042968-.003906-.082031-.011719-.121094-.015625-.15625-.023437-.308593-.042968-.457031-.066406-.03125-.003906-.058593-.007812-.089843-.011719-.136719-.023437-.277344-.042969-.414063-.066406-.050781-.003906-.097656-.011719-.148437-.019531-.140626-.023438-.28125-.042969-.417969-.066406-.039063-.003907-.074219-.011719-.113281-.015626-.144532-.023437-.289063-.046874-.433594-.070312-.039063-.003906-.074219-.011719-.113282-.015625-.148437-.027344-.300781-.050781-.449218-.074219-.027344-.003906-.050782-.007812-.078125-.011718-.15625-.027344-.316407-.054688-.472657-.082032-.019531 0-.042968-.003906-.0625-.007812-.144531-.023438-.285156-.050782-.429687-.074219-.039063-.007813-.078125-.011719-.117187-.019531-.144532-.023438-.285157-.050782-.425782-.074219-.035156-.007813-.066406-.011719-.101562-.015625-.144532-.027344-.292969-.054688-.4375-.078125-.027344-.007813-.058594-.011719-.085938-.015625-.164062-.03125-.324218-.058594-.488281-.089844-.007813 0-.015625-.003906-.023437-.003906-.167969-.03125-.332032-.0625-.5-.09375-.007813-.003906-.015626-.003906-.027344-.003906-.160156-.03125-.320313-.0625-.476563-.09375-.015625 0-.03125-.003906-.046875-.007813-.160156-.03125-.324218-.0625-.488281-.09375-.007813 0-.015625-.003906-.023437-.003906-.152344-.03125-.300782-.058594-.453126-.089844-.027343-.003906-.054687-.011719-.078124-.015625-.144532-.03125-.289063-.058594-.433594-.085937-.023438-.007813-.050782-.011719-.078125-.015625-.160157-.035156-.320313-.066406-.480469-.101563-.003906 0-.007812 0-.011719-.003906-.679687-.140625-1.347656-.285156-2.011719-.433594h-.003906c-.828125-.1875-1.640625-.378906-2.449218-.578125-.007813 0-.015626-.003906-.023438-.003906-.476562-.121094-.953125-.242188-1.425781-.363281-.007813-.003907-.015625-.003907-.023438-.007813-31.492187-8.1875-47.574219-26.199218-63.871093-47.113281-.003907-.003906-.003907-.003906-.007813-.007813-.613281-.785156-1.222656-1.578124-1.839844-2.371093-.113281-.148438-.230469-.300781-.347656-.449219-.523437-.679688-1.050781-1.363281-1.578125-2.046875-.105469-.140625-.210938-.277344-.320312-.417969-.214844-.277344-.429688-.554687-.644532-.835937-.316406-.410157-.632812-.820313-.949218-1.234375-.152344-.199219-.308594-.398438-.460938-.597656-.089844-.117188-.179688-.230469-.269531-.347657-.183594-.242187-.371094-.484375-.558594-.726562-.0625-.082031-.125-.160157-.1875-.242188-.226563-.292969-.453125-.585937-.679687-.878906-.050782-.070313-.105469-.136719-.160157-.207031-.1875-.242188-.378906-.488282-.570312-.734375-.054688-.074219-.109375-.144531-.167969-.21875-.507812-.65625-1.019531-1.3125-1.535156-1.972657-.007813-.007812-.015625-.019531-.023438-.03125-.265625-.335937-.53125-.675781-.796875-1.011718-.007812-.011719-.015625-.019532-.023437-.03125-.25-.320313-.503906-.636719-.753906-.957032-.023438-.027343-.046876-.058593-.070313-.085937-.246094-.316406-.496094-.628906-.746094-.941406-.046875-.058594-.09375-.117188-.140625-.175781-.09375-.117188-.1875-.234376-.277344-.351563zm10.289063-350.234375c9.539063 0 17.300781 7.761719 17.300781 17.300781 0 9.539063-7.761718 17.300781-17.300781 17.300781s-17.300781-7.761718-17.300781-17.300781c0-9.539062 7.761718-17.300781 17.300781-17.300781zm-19.320313 49.195312c5.636719 3.429688 12.253907 5.40625 19.320313 5.40625 7.070313 0 13.683594-1.976562 19.320313-5.40625l94.742187 89.089844h-228.121094zm229.308594 109.089844-27.445312 35.269532c-1.457032-.480469-2.957032-.820313-4.492188-1.015626-.011718-.003906-.023437-.003906-.035156-.003906-.082031-.011718-.160156-.019531-.242188-.03125-.023437 0-.046874-.003906-.070312-.007812-.074219-.007813-.152344-.015625-.226562-.023438-.019532-.003906-.039063-.003906-.058594-.007812-.097656-.007813-.191406-.019532-.289063-.027344-.003906 0-.011719 0-.015625 0-.085937-.007812-.171875-.015625-.261718-.023438-.027344 0-.054688-.003906-.082032-.003906-.070312-.003906-.136718-.011718-.203125-.015625-.027343 0-.058593-.003906-.089843-.003906-.078126-.003906-.15625-.007813-.230469-.011719-.015625-.003906-.035157-.003906-.050781-.003906-.09375-.007812-.183594-.011719-.277344-.011719-.027344-.003906-.058594-.003906-.085938-.003906-.066406-.003906-.136718-.003906-.203125-.007813-.03125 0-.0625 0-.097656 0-.0625 0-.125-.003906-.1875-.003906-.035156 0-.066406 0-.101563 0-.09375-.003906-.1875-.003906-.277343-.003906h-211.964844c-5.519531 0-10 4.476562-10 10s4.480469 10 10 10h211.964844c.039062 0 .078125 0 .113281.003906h.074219c.011719 0 .019531.003906.03125.003906.488281.023438.949219.132813 1.378906.308594.554687.234375.980469.5625 1.289063.855469.054687.050781.113281.105469.167968.15625.703125.75 1.132813 1.757813 1.132813 2.863281v163.640625c-49.972657-.859375-65.753907-21.21875-81.050781-40.933593-10.9375-14.089844-22.242188-28.664063-44.15625-33.832032-22.960938-5.410156-45.082032-.007812-63.976563 15.628906-5.589844 4.632813-10.105469 9.519532-13.523437 13.738282-9.050782-9.613282-20.816407-20.011719-36.527344-28.445313-13.34375-7.160156-27.457032-8.292969-41.945313-3.367187-31.972656 10.875-59.296875 49.816406-77.125 81.914062v-168.347656c0-1.105469.429688-2.113281 1.136719-2.863281.054688-.050781.109375-.101563.164062-.15625.296876-.28125.703126-.59375 1.222657-.824219.003906 0 .011719-.003906.015625-.003906.011718-.007813.027344-.015625.042968-.019532.429688-.179687.898438-.292968 1.386719-.316406h.035157c.023437-.003906.046874-.003906.070312-.003906.039062 0 .078125-.003906.117188-.003906h57.960937c5.523437 0 10-4.476563 10-10 0-5.523438-4.476563-10-10-10h-57.960937c-.089844 0-.183594.003906-.273438.003906-.03125 0-.066406 0-.097656 0-.066406 0-.132813.003906-.199219.003906-.027344 0-.050781 0-.078125.003906-.089844 0-.183594.003907-.273438.007813-.019531 0-.039062 0-.058593 0-.074219.003906-.152344.007813-.226563.011719-.027344 0-.054687.003906-.082031.003906-.070313.003906-.136719.007812-.207031.011719-.027344.003906-.054688.003906-.082032.003906-.089843.007813-.179687.011719-.269531.019531-.015625 0-.035156.003906-.050781.003906-.078125.007813-.15625.011719-.230469.019532-.027343.003906-.050781.003906-.074219.007812-.074218.007813-.148437.011719-.222656.019532-.019531.003906-.042968.003906-.0625.007812-.089844.007812-.183594.019531-.277344.027344-.011718.003906-.023437.003906-.039062.007812-.082031.007813-.164062.019532-.25.027344-.015625.003906-.03125.003906-.046875.007812-.089844.011719-.179687.023438-.269531.035157-.003906 0-.007813 0-.011719 0-1.285156.179687-2.550781.464843-3.777344.847656l-27.34375-35.136719zm-419.636718 313.714844 27.378906-35.183594c2.304687.730469 4.761718 1.128906 7.308594 1.128906h350.257812c2.460938 0 4.871094-.371093 7.164062-1.082031l27.339844 35.136719zm0 0" data-original="#000000" class="active-path" data-old_color="#000000" fill="#424241"/><path d="m370.632812 318.144531c19.050782 0 34.546876-15.5 34.546876-34.546875 0-19.050781-15.496094-34.546875-34.546876-34.546875-19.046874 0-34.546874 15.496094-34.546874 34.546875 0 19.046875 15.5 34.546875 34.546874 34.546875zm0-49.09375c8.019532 0 14.546876 6.523438 14.546876 14.546875 0 8.019532-6.523438 14.546875-14.546876 14.546875-8.019531 0-14.546874-6.527343-14.546874-14.546875 0-8.023437 6.527343-14.546875 14.546874-14.546875zm0 0" data-original="#000000" class="active-path" data-old_color="#000000" fill="#424241"/><path d="m169.046875 232.34375h.027344c5.519531 0 9.984375-4.480469 9.984375-10 0-5.523438-4.488282-10-10.011719-10s-10 4.476562-10 10c0 5.519531 4.480469 10 10 10zm0 0" data-original="#000000" class="active-path" data-old_color="#000000" fill="#424241"/></g> </svg>
