<?xml version="1.0"?>
<svg xmlns="http://www.w3.org/2000/svg" viewBox="0 0 1000 1000">
	<path d="M315.85 501.31c-19.76 0-35.84 15.52-35.84
            34.62s16.09 34.62 35.84 34.62 35.85-15.53
            35.85-34.62-16.09-34.62-35.85-34.62m0
            78.11c-24.83 0-45-19.51-45-43.49s20.19-43.5
            45-43.5 45 19.52 45 43.5-20.19 43.49-45 43.49"
	      class="cls-1">
	</path>
	<path d="M315.85 456.63c-45.27 0-82.11 35.57-82.11
				79.3 0 30.5 41.93 115.67 82.11 186.95C356 651.6 398
			 566.44 398 535.93c0-43.73-36.83-79.3-82.12-79.3m0
			 287.11a15.49 15.49 0 0 1-13.54-7.74c-26.15-46.09-87-157.86-87-200.08
			 0-53.52 45.08-97.05 100.5-97.05s100.5 43.53 100.5 97.05c0
			  42.25-60.83 154-87 200.08a15.5 15.5 0 0 1-13.53 7.73M737.49
			   317.78c0 21.57-18.11 39.05-40.45 39.05s-40.43-17.48-40.43-39.05
			    18.09-39.06 40.39-39.06 40.45 17.48 40.45 39.05"
	      class="cls-1">
	</path>
	<path d="M697 238.48c-45.27 0-82.12 35.57-82.12 79.3 0 30.5 41.93 115.67 82.12 186.95 40.17-71.26 82.11-156.44 82.11-186.95 0-43.73-36.83-79.3-82.11-79.3m0 287.11a15.52 15.52 0 0 1-13.53-7.73c-26.14-46.09-87-157.84-87-200.08 0-53.51 45.08-97.05 100.5-97.05s100.5 43.54 100.5 97.05c0 42.25-60.83 154-87 200.08a15.53 15.53 0 0 1-13.47 7.73"
	      class="cls-1" />
	<path d="M315.94 743.74l-.16-17.74c6.92-.07 13.75-.18 20.34-.33 28.07-.64 51.56-1.63 75-4.38 3.35-.39 6.77-.74 10.27-1.1 19.49-2 39.64-4.11 54.51-13.71 3.19-2.05 4-3.55 4-4s-.37-1.81-2.57-4c-5-5-12.3-8-20-11.18-7-2.9-14.22-5.9-20.71-10.66-8.82-6.46-13.64-15.06-14-24.84-.39-11.55 5.61-23.42 16.48-32.53 26.63-22.35 63.81-24.87 96.64-27.1 6-.4 11.75-.79 17.33-1.3l4.84-.42c27.32-2.44 55.55-5 83-9.11 25.73-3.89 52.34-7.92 76-17.63 13.87-5.71 12.79-10.59 12.29-12.94-1.13-5.11-5.89-9.39-9.68-12.09a144.09 144.09 0 0 0-25.39-13.94l7.66-16.15a161.11 161.11 0 0 1 28.61 15.78c9.13 6.48 14.93 14.33 16.77 22.71 2.16 9.82-.09 23.51-23.06 32.94-25.74 10.59-54.75 15-80.34 18.85-28 4.24-56.53 6.79-84.13 9.25l-4.85.43c-5.77.52-11.58.92-17.73 1.33-31.41 2.12-63.87 4.32-85.87 22.78-6.56 5.51-10.36 12.44-10.15 18.55.15 4.32 2.41 8.12 6.73 11.28 4.7 3.43 10.6 5.89 16.84 8.49 9 3.74 18.35 7.6 25.92 15.08 5.69 5.63 8.36 11.91 7.72 18.15-.67 6.5-4.74 12.2-12.11 17-18.62 12-42.09 14.46-62.79 16.59-3.39.35-6.74.7-10 1.09-24.15 2.82-48.15 3.85-76.75 4.5-6.67.15-13.61.27-20.61.33"
	      class="cls-1" />
</svg>