<svg height="682pt" viewBox="-101 -21 682 682.66669" width="682pt" xmlns="http://www.w3.org/2000/svg"><g fill="#c6c5ca"><path d="m35 200h-40v-68.28125l131.71875-131.71875h68.28125v40h-51.71875l-108.28125 108.28125zm0 0"/><path d="m355 40h-40v-40h40zm-80 0h-40v-40h40zm0 0"/><path d="m475 80h-40v-40h-40v-40h80zm0 0"/><path d="m475 480h-40v-40h40zm0-80h-40v-40h40zm0-80h-40v-40h40zm0-80h-40v-40h40zm0-80h-40v-40h40zm0 0"/><path d="m475 640h-120v-40h80v-80h40zm0 0"/><path d="m315 640h-40v-40h40zm-80 0h-40v-40h40zm-80 0h-40v-40h40zm0 0"/><path d="m75 640h-80v-80h40v40h40zm0 0"/><path d="m35 520h-40v-40h40zm0-80h-40v-40h40zm0-80h-40v-40h40zm0-80h-40v-40h40zm0 0"/></g><path d="m127.003906 0h-.285156l-131.71875 131.71875v.28125h132.003906zm0 0" fill="#e76e54"/></svg>