<?xml version="1.0"?>
<svg xmlns="http://www.w3.org/2000/svg" viewBox="0 0 1000 1000">
	<path d="M724.47 527.35c-61.07 7.37-142.12 11.43-228.21 11.43S329.12 534.71 268 527.35c-30.28-3.65-54.25-8-71.24-12.81l-.53-.15a7.27 7.27 0 0 0-8.91 9.33c44.21 128 165.73 219.88 308.72 219.88s264.44-91.86 308.68-219.77a7.27 7.27 0 0 0-8.91-9.33h-.15c-16.94 4.88-40.91 9.19-71.19 12.85zM495.09 686.74a4.68 4.68 0 0 1-3.59 1.71 4.78 4.78 0 0 1-.7-.06c-11.71-1.78-33.63-7.13-49-23s-20.57-38.53-22.3-50.63a5 5 0 0 1 1.1-3.93 4.68 4.68 0 0 1 4.29-1.65c11.71 1.78 33.63 7.13 49 23s20.57 38.53 22.3 50.63a5 5 0 0 1-1.1 3.93zm2.74-27.58c-3.72-10.78-9.61-22.46-19-32.11a71.3 71.3 0 0 0-6.9-6.24 2.3 2.3 0 0 1-.84-2.15c4.71-29.36 24.71-51.28 25.67-52.31a4.18 4.18 0 0 1 6.17 0c1 1 21 22.95 25.67 52.31a2.29 2.29 0 0 1-.84 2.15 71.77 71.77 0 0 0-6.9 6.24c-9.35 9.65-15.25 21.33-19 32.11a2.15 2.15 0 0 1-4.03 0zm82.47-44.42c-1.74 12.1-6.94 34.76-22.3 50.61s-37.31 21.23-49 23a4.92 4.92 0 0 1-.7.06 4.67 4.67 0 0 1-3.59-1.71 5 5 0 0 1-1.11-3.92c1.72-12.08 6.91-34.72 22.31-50.62s37.31-21.23 49-23a4.7 4.7 0 0 1 4.3 1.65 5 5 0 0 1 1.09 3.94z"
	      class="cls-1" />
	<path d="M771.22 462.93l-13.76 11.26c-1.82 1.49-3.73 3.39-5.76 5.4l-1.16 1.15c-4.29 4.24-10.53 7.05-20.88 9.4a243.62 243.62 0 0 1-27 4.18c-21.55 2.32-49.22 3.59-77.91 3.59-41.12 0-78.82-2.58-100.85-6.91a25 25 0 0 1-6.18-46.86q-10.64-.09-21.47-.09c-176.6 0-319.77 17.27-319.77 38.58s143.16 38.58 319.77 38.58S816 503.94 816 482.64c0-7.2-16.32-13.94-44.78-19.71zM306.83 475c-30.11 1.63-55.14 4.2-70.48 7.24a5.27 5.27 0 1 1-2-10.33c16-3.18 40.93-5.75 72-7.43a5.27 5.27 0 1 1 .57 10.52zm42.68-2.48c-6.2.17-12.39.39-18.41.66h-.24a5.27 5.27 0 0 1-.23-10.53c6.08-.27 12.33-.49 18.58-.67a5.27 5.27 0 1 1 .29 10.53z"
	      class="cls-1" />
	<path d="M871.49 324.86l-.81-.61a31.4 31.4 0 0 0-18.91-6.06 38.09 38.09 0 0 0-14.32 2.81L525.74 459.77a7.39 7.39 0 0 0 1.55 14c20.1 3.95 56.23 6.58 97.47 6.58 58.39 0 106.55-5.28 113.45-12.1 2.65-2.62 5.25-5.29 8.14-7.66l125.17-102.42c10.48-8.61 10.66-24.89-.03-33.31zM753 384.53l-93.25 43.83a5.27 5.27 0 0 1-4.48-9.53l93.3-43.83a5.27 5.27 0 0 1 4.48 9.53zm35.65-17.1l-15.42 7.93a5.27 5.27 0 1 1-4.82-9.37l15.42-7.93a5.27 5.27 0 1 1 4.82 9.37z"
	      class="cls-1" />
</svg>