<?xml version="1.0" encoding="iso-8859-1"?><!-- Generator: Adobe Illustrator 19.0.0, SVG Export Plug-In . SVG Version: 6.00 Build 0)  -->
<svg version="1.1" id="Capa_1" xmlns="http://www.w3.org/2000/svg" x="0px" y="0px" viewBox="0 0 511.919 511.919"
     style="enable-background:new 0 0 511.919 511.919;" xml:space="preserve">
<g>
	<g>
		<g>
			<path d="M479.919,306.279c-0.051,33.715-17.786,64.933-46.72,82.24l16,27.36c38.587-23.098,62.354-64.63,62.72-109.6H479.919z" />
			<path d="M159.919,110.759l-20.48-24.96c-31.212,25.282-51.773,61.378-57.6,101.12C15.911,212.433-16.852,286.56,8.661,352.488
				c10.271,26.542,29.096,48.904,53.497,63.551l16-27.36c-45.446-27.307-60.151-86.285-32.844-131.732
				c12.408-20.651,32.128-35.881,55.244-42.668c6.331-1.897,10.845-7.491,11.36-14.08
				C114.908,165.045,132.276,132.683,159.919,110.759z" />
			<path d="M459.279,262.919l-33.76-33.76c11.166-14.937,18.426-32.426,21.12-50.88h49.28v-32h-49.28
				c-2.694-18.454-9.954-35.943-21.12-50.88l33.76-33.76l-22.72-22.72l-33.76,33.76c-14.937-11.166-32.426-18.426-50.88-21.12V2.279
				h-32v49.28c-22.306,3.27-43.106,13.196-59.68,28.48l-40.96-41.12l-22.72,22.72l43.36,43.2
				c-7.62,12.694-12.625,26.783-14.72,41.44h-49.28v32h80v-16c0-44.183,35.817-80,80-80c44.183,0,80,35.817,80,80s-35.817,80-80,80
				v32c24.124-0.069,47.581-7.925,66.88-22.4l33.76,33.76L459.279,262.919z" />
			<polygon points="356.559,326.919 313.359,370.279 271.919,370.279 271.919,328.839 315.279,285.639 292.559,262.919 
				255.919,299.719 219.279,262.919 196.559,285.639 239.919,328.839 239.919,370.279 198.479,370.279 155.279,326.919 
				132.559,349.639 169.359,386.279 132.559,422.919 155.279,445.639 198.479,402.279 239.919,402.279 239.919,443.719 
				196.559,486.919 219.279,509.639 255.919,472.839 292.559,509.639 315.279,486.919 271.919,443.719 271.919,402.279 
				313.359,402.279 356.559,445.639 379.279,422.919 342.479,386.279 379.279,349.639 			" />
		</g>
	</g>
</g>
</svg>
