<svg xmlns="http://www.w3.org/2000/svg" height="793.7" width="1122.5">
  <defs>
    <linearGradient id="b" gradientTransform="scale(197.39885 -197.39885) rotate(-60 0 -2)" gradientUnits="userSpaceOnUse" y2="0" x2="1" y1="0" x1="0">
      <stop offset="0" stop-color="#ad8f44"/>
      <stop offset=".2" stop-color="#ad8f44"/>
      <stop offset=".4" stop-color="#cfbb8e"/>
      <stop offset=".6" stop-color="#ad8f44"/>
      <stop offset="1" stop-color="#ad8f44"/>
    </linearGradient>
    <linearGradient id="d" gradientTransform="scale(214.0449 -214.0449) rotate(-60 0 -2)" gradientUnits="userSpaceOnUse" y2="0" x2="1" y1="0" x1="0">
      <stop offset="0" stop-color="#ad8f44"/>
      <stop offset=".2" stop-color="#ad8f44"/>
      <stop offset=".4" stop-color="#cfbb8e"/>
      <stop offset=".6" stop-color="#ad8f44"/>
      <stop offset="1" stop-color="#ad8f44"/>
    </linearGradient>
    <linearGradient id="f" gradientTransform="scale(213.19392 -213.19392) rotate(-60 0 -2)" gradientUnits="userSpaceOnUse" y2="0" x2="1" y1="0" x1="0">
      <stop offset="0" stop-color="#ad8f44"/>
      <stop offset=".2" stop-color="#ad8f44"/>
      <stop offset=".4" stop-color="#cfbb8e"/>
      <stop offset=".6" stop-color="#ad8f44"/>
      <stop offset="1" stop-color="#ad8f44"/>
    </linearGradient>
    <linearGradient id="h" gradientTransform="scale(211.66082 -211.66082) rotate(-60 0 -2)" gradientUnits="userSpaceOnUse" y2="0" x2="1" y1="0" x1="0">
      <stop offset="0" stop-color="#ad8f44"/>
      <stop offset=".2" stop-color="#ad8f44"/>
      <stop offset=".4" stop-color="#cfbb8e"/>
      <stop offset=".6" stop-color="#ad8f44"/>
      <stop offset="1" stop-color="#ad8f44"/>
    </linearGradient>
    <linearGradient id="j" gradientTransform="scale(221.37403 -221.37403) rotate(-60 0 -2)" gradientUnits="userSpaceOnUse" y2="0" x2="1" y1="0" x1="0">
      <stop offset="0" stop-color="#ad8f44"/>
      <stop offset=".2" stop-color="#ad8f44"/>
      <stop offset=".4" stop-color="#cfbb8e"/>
      <stop offset=".6" stop-color="#ad8f44"/>
      <stop offset="1" stop-color="#ad8f44"/>
    </linearGradient>
    <linearGradient id="l" gradientTransform="scale(206.10256 -206.10256) rotate(-60 0 -2)" gradientUnits="userSpaceOnUse" y2="0" x2="1" y1="0" x1="0">
      <stop offset="0" stop-color="#ad8f44"/>
      <stop offset=".2" stop-color="#ad8f44"/>
      <stop offset=".4" stop-color="#cfbb8e"/>
      <stop offset=".6" stop-color="#ad8f44"/>
      <stop offset="1" stop-color="#ad8f44"/>
    </linearGradient>
    <linearGradient id="n" gradientTransform="scale(194.0247 -194.0247) rotate(-60 0 -2)" gradientUnits="userSpaceOnUse" y2="0" x2="1" y1="0" x1="0">
      <stop offset="0" stop-color="#ad8f44"/>
      <stop offset=".2" stop-color="#ad8f44"/>
      <stop offset=".4" stop-color="#cfbb8e"/>
      <stop offset=".6" stop-color="#ad8f44"/>
      <stop offset="1" stop-color="#ad8f44"/>
    </linearGradient>
    <linearGradient id="p" gradientTransform="scale(210.08146 -210.08146) rotate(-60 0 -2)" gradientUnits="userSpaceOnUse" y2="0" x2="1" y1="0" x1="0">
      <stop offset="0" stop-color="#ad8f44"/>
      <stop offset=".2" stop-color="#ad8f44"/>
      <stop offset=".4" stop-color="#cfbb8e"/>
      <stop offset=".6" stop-color="#ad8f44"/>
      <stop offset="1" stop-color="#ad8f44"/>
    </linearGradient>
    <linearGradient id="r" gradientTransform="scale(222.34863 -222.34863) rotate(-60 0 -2)" gradientUnits="userSpaceOnUse" y2="0" x2="1" y1="0" x1="0">
      <stop offset="0" stop-color="#ad8f44"/>
      <stop offset=".2" stop-color="#ad8f44"/>
      <stop offset=".4" stop-color="#cfbb8e"/>
      <stop offset=".6" stop-color="#ad8f44"/>
      <stop offset="1" stop-color="#ad8f44"/>
    </linearGradient>
    <linearGradient id="t" gradientTransform="scale(212.85829 -212.85829) rotate(-60 0 -2)" gradientUnits="userSpaceOnUse" y2="0" x2="1" y1="0" x1="0">
      <stop offset="0" stop-color="#ad8f44"/>
      <stop offset=".2" stop-color="#ad8f44"/>
      <stop offset=".4" stop-color="#cfbb8e"/>
      <stop offset=".6" stop-color="#ad8f44"/>
      <stop offset="1" stop-color="#ad8f44"/>
    </linearGradient>
    <linearGradient id="v" gradientTransform="scale(180.6742 -180.6742) rotate(-60 0 -3)" gradientUnits="userSpaceOnUse" y2="0" x2="1" y1="0" x1="0">
      <stop offset="0" stop-color="#ad8f44"/>
      <stop offset=".2" stop-color="#ad8f44"/>
      <stop offset=".4" stop-color="#cfbb8e"/>
      <stop offset=".6" stop-color="#ad8f44"/>
      <stop offset="1" stop-color="#ad8f44"/>
    </linearGradient>
    <linearGradient id="x" gradientTransform="scale(199.38505 -199.38505) rotate(-60 0 -2)" gradientUnits="userSpaceOnUse" y2="0" x2="1" y1="0" x1="0">
      <stop offset="0" stop-color="#ad8f44"/>
      <stop offset=".2" stop-color="#ad8f44"/>
      <stop offset=".4" stop-color="#cfbb8e"/>
      <stop offset=".6" stop-color="#ad8f44"/>
      <stop offset="1" stop-color="#ad8f44"/>
    </linearGradient>
    <linearGradient id="z" gradientTransform="scale(207.2444 -207.2444) rotate(-60 0 -2)" gradientUnits="userSpaceOnUse" y2="0" x2="1" y1="0" x1="0">
      <stop offset="0" stop-color="#ad8f44"/>
      <stop offset=".2" stop-color="#ad8f44"/>
      <stop offset=".4" stop-color="#cfbb8e"/>
      <stop offset=".6" stop-color="#ad8f44"/>
      <stop offset="1" stop-color="#ad8f44"/>
    </linearGradient>
    <linearGradient id="B" gradientTransform="scale(211.07134 -211.07134) rotate(-60 0 -2)" gradientUnits="userSpaceOnUse" y2="0" x2="1" y1="0" x1="0">
      <stop offset="0" stop-color="#ad8f44"/>
      <stop offset=".2" stop-color="#ad8f44"/>
      <stop offset=".4" stop-color="#cfbb8e"/>
      <stop offset=".6" stop-color="#ad8f44"/>
      <stop offset="1" stop-color="#ad8f44"/>
    </linearGradient>
    <linearGradient id="D" gradientTransform="scale(193.66354 -193.66354) rotate(-60 -1 -2)" gradientUnits="userSpaceOnUse" y2="0" x2="1" y1="0" x1="0">
      <stop offset="0" stop-color="#ad8f44"/>
      <stop offset=".2" stop-color="#ad8f44"/>
      <stop offset=".4" stop-color="#cfbb8e"/>
      <stop offset=".6" stop-color="#ad8f44"/>
      <stop offset="1" stop-color="#ad8f44"/>
    </linearGradient>
    <linearGradient id="F" gradientTransform="scale(204.34404 -204.34404) rotate(-60 -1 -2)" gradientUnits="userSpaceOnUse" y2="0" x2="1" y1="0" x1="0">
      <stop offset="0" stop-color="#ad8f44"/>
      <stop offset=".2" stop-color="#ad8f44"/>
      <stop offset=".4" stop-color="#cfbb8e"/>
      <stop offset=".6" stop-color="#ad8f44"/>
      <stop offset="1" stop-color="#ad8f44"/>
    </linearGradient>
    <linearGradient id="H" gradientTransform="scale(212.99517 -212.99517) rotate(-60 0 -2)" gradientUnits="userSpaceOnUse" y2="0" x2="1" y1="0" x1="0">
      <stop offset="0" stop-color="#ad8f44"/>
      <stop offset=".2" stop-color="#ad8f44"/>
      <stop offset=".4" stop-color="#cfbb8e"/>
      <stop offset=".6" stop-color="#ad8f44"/>
      <stop offset="1" stop-color="#ad8f44"/>
    </linearGradient>
    <linearGradient id="J" gradientTransform="scale(229.10067 -229.10067) rotate(-60 0 -2)" gradientUnits="userSpaceOnUse" y2="0" x2="1" y1="0" x1="0">
      <stop offset="0" stop-color="#ad8f44"/>
      <stop offset=".2" stop-color="#ad8f44"/>
      <stop offset=".4" stop-color="#cfbb8e"/>
      <stop offset=".6" stop-color="#ad8f44"/>
      <stop offset="1" stop-color="#ad8f44"/>
    </linearGradient>
    <linearGradient id="L" gradientTransform="scale(206.92235 -206.92235) rotate(-60 0 -2)" gradientUnits="userSpaceOnUse" y2="0" x2="1" y1="0" x1="0">
      <stop offset="0" stop-color="#ad8f44"/>
      <stop offset=".2" stop-color="#ad8f44"/>
      <stop offset=".4" stop-color="#cfbb8e"/>
      <stop offset=".6" stop-color="#ad8f44"/>
      <stop offset="1" stop-color="#ad8f44"/>
    </linearGradient>
    <linearGradient id="N" gradientTransform="scale(212.64948 -212.64948) rotate(-60 0 -2)" gradientUnits="userSpaceOnUse" y2="0" x2="1" y1="0" x1="0">
      <stop offset="0" stop-color="#ad8f44"/>
      <stop offset=".2" stop-color="#ad8f44"/>
      <stop offset=".4" stop-color="#cfbb8e"/>
      <stop offset=".6" stop-color="#ad8f44"/>
      <stop offset="1" stop-color="#ad8f44"/>
    </linearGradient>
    <linearGradient id="P" gradientTransform="scale(207.17649 -207.17649) rotate(-60 0 -2)" gradientUnits="userSpaceOnUse" y2="0" x2="1" y1="0" x1="0">
      <stop offset="0" stop-color="#ad8f44"/>
      <stop offset=".2" stop-color="#ad8f44"/>
      <stop offset=".4" stop-color="#cfbb8e"/>
      <stop offset=".6" stop-color="#ad8f44"/>
      <stop offset="1" stop-color="#ad8f44"/>
    </linearGradient>
    <linearGradient id="R" gradientTransform="scale(197.58876 -197.58876) rotate(-60 0 -2)" gradientUnits="userSpaceOnUse" y2="0" x2="1" y1="0" x1="0">
      <stop offset="0" stop-color="#ad8f44"/>
      <stop offset=".2" stop-color="#ad8f44"/>
      <stop offset=".4" stop-color="#cfbb8e"/>
      <stop offset=".6" stop-color="#ad8f44"/>
      <stop offset="1" stop-color="#ad8f44"/>
    </linearGradient>
    <linearGradient id="T" gradientTransform="scale(201.87334 -201.87334) rotate(-60 0 -2)" gradientUnits="userSpaceOnUse" y2="0" x2="1" y1="0" x1="0">
      <stop offset="0" stop-color="#ad8f44"/>
      <stop offset=".2" stop-color="#ad8f44"/>
      <stop offset=".4" stop-color="#cfbb8e"/>
      <stop offset=".6" stop-color="#ad8f44"/>
      <stop offset="1" stop-color="#ad8f44"/>
    </linearGradient>
    <linearGradient id="V" gradientTransform="scale(195.34582 -195.34582) rotate(-60 0 -2)" gradientUnits="userSpaceOnUse" y2="0" x2="1" y1="0" x1="0">
      <stop offset="0" stop-color="#ad8f44"/>
      <stop offset=".2" stop-color="#ad8f44"/>
      <stop offset=".4" stop-color="#cfbb8e"/>
      <stop offset=".6" stop-color="#ad8f44"/>
      <stop offset="1" stop-color="#ad8f44"/>
    </linearGradient>
    <linearGradient id="X" gradientTransform="scale(218.0151 -218.0151) rotate(-60 -1 -2)" gradientUnits="userSpaceOnUse" y2="0" x2="1" y1="0" x1="0">
      <stop offset="0" stop-color="#ad8f44"/>
      <stop offset=".2" stop-color="#ad8f44"/>
      <stop offset=".4" stop-color="#cfbb8e"/>
      <stop offset=".6" stop-color="#ad8f44"/>
      <stop offset="1" stop-color="#ad8f44"/>
    </linearGradient>
    <linearGradient id="Z" gradientTransform="scale(199.72343 -199.72343) rotate(-60 -1 -2)" gradientUnits="userSpaceOnUse" y2="0" x2="1" y1="0" x1="0">
      <stop offset="0" stop-color="#ad8f44"/>
      <stop offset=".2" stop-color="#ad8f44"/>
      <stop offset=".4" stop-color="#cfbb8e"/>
      <stop offset=".6" stop-color="#ad8f44"/>
      <stop offset="1" stop-color="#ad8f44"/>
    </linearGradient>
    <linearGradient id="ab" gradientTransform="scale(191.81105 -191.81105) rotate(-60 -1 -2)" gradientUnits="userSpaceOnUse" y2="0" x2="1" y1="0" x1="0">
      <stop offset="0" stop-color="#ad8f44"/>
      <stop offset=".2" stop-color="#ad8f44"/>
      <stop offset=".4" stop-color="#cfbb8e"/>
      <stop offset=".6" stop-color="#ad8f44"/>
      <stop offset="1" stop-color="#ad8f44"/>
    </linearGradient>
    <linearGradient id="ad" gradientTransform="scale(242.96971 -242.96971) rotate(-60 0 -2)" gradientUnits="userSpaceOnUse" y2="0" x2="1" y1="0" x1="0">
      <stop offset="0" stop-color="#ad8f44"/>
      <stop offset=".2" stop-color="#ad8f44"/>
      <stop offset=".4" stop-color="#cfbb8e"/>
      <stop offset=".6" stop-color="#ad8f44"/>
      <stop offset="1" stop-color="#ad8f44"/>
    </linearGradient>
    <linearGradient id="af" gradientTransform="scale(198.54965 -198.54965) rotate(-60 -1 -2)" gradientUnits="userSpaceOnUse" y2="0" x2="1" y1="0" x1="0">
      <stop offset="0" stop-color="#ad8f44"/>
      <stop offset=".2" stop-color="#ad8f44"/>
      <stop offset=".4" stop-color="#cfbb8e"/>
      <stop offset=".6" stop-color="#ad8f44"/>
      <stop offset="1" stop-color="#ad8f44"/>
    </linearGradient>
    <linearGradient id="ah" gradientTransform="scale(188.08706 -188.08706) rotate(-60 -1 -2)" gradientUnits="userSpaceOnUse" y2="0" x2="1" y1="0" x1="0">
      <stop offset="0" stop-color="#ad8f44"/>
      <stop offset=".2" stop-color="#ad8f44"/>
      <stop offset=".4" stop-color="#cfbb8e"/>
      <stop offset=".6" stop-color="#ad8f44"/>
      <stop offset="1" stop-color="#ad8f44"/>
    </linearGradient>
    <linearGradient id="aj" gradientTransform="scale(199.58425 -199.58425) rotate(-60 -1 -2)" gradientUnits="userSpaceOnUse" y2="0" x2="1" y1="0" x1="0">
      <stop offset="0" stop-color="#ad8f44"/>
      <stop offset=".2" stop-color="#ad8f44"/>
      <stop offset=".4" stop-color="#cfbb8e"/>
      <stop offset=".6" stop-color="#ad8f44"/>
      <stop offset="1" stop-color="#ad8f44"/>
    </linearGradient>
    <linearGradient id="al" gradientTransform="scale(190.30889 -190.30889) rotate(-60 -1 -2)" gradientUnits="userSpaceOnUse" y2="0" x2="1" y1="0" x1="0">
      <stop offset="0" stop-color="#ad8f44"/>
      <stop offset=".2" stop-color="#ad8f44"/>
      <stop offset=".4" stop-color="#cfbb8e"/>
      <stop offset=".6" stop-color="#ad8f44"/>
      <stop offset="1" stop-color="#ad8f44"/>
    </linearGradient>
    <linearGradient id="an" gradientTransform="scale(204.76992 -204.76992) rotate(-60 -1 -2)" gradientUnits="userSpaceOnUse" y2="0" x2="1" y1="0" x1="0">
      <stop offset="0" stop-color="#ad8f44"/>
      <stop offset=".2" stop-color="#ad8f44"/>
      <stop offset=".4" stop-color="#cfbb8e"/>
      <stop offset=".6" stop-color="#ad8f44"/>
      <stop offset="1" stop-color="#ad8f44"/>
    </linearGradient>
    <linearGradient id="ap" gradientTransform="scale(206.7753 -206.7753) rotate(-60 0 -2)" gradientUnits="userSpaceOnUse" y2="0" x2="1" y1="0" x1="0">
      <stop offset="0" stop-color="#ad8f44"/>
      <stop offset=".2" stop-color="#ad8f44"/>
      <stop offset=".4" stop-color="#cfbb8e"/>
      <stop offset=".6" stop-color="#ad8f44"/>
      <stop offset="1" stop-color="#ad8f44"/>
    </linearGradient>
    <linearGradient id="ar" gradientTransform="scale(209.3957 -209.3957) rotate(-60 0 -2)" gradientUnits="userSpaceOnUse" y2="0" x2="1" y1="0" x1="0">
      <stop offset="0" stop-color="#ad8f44"/>
      <stop offset=".2" stop-color="#ad8f44"/>
      <stop offset=".4" stop-color="#cfbb8e"/>
      <stop offset=".6" stop-color="#ad8f44"/>
      <stop offset="1" stop-color="#ad8f44"/>
    </linearGradient>
    <linearGradient id="at" gradientTransform="scale(210.95143 -210.95143) rotate(-60 0 -2)" gradientUnits="userSpaceOnUse" y2="0" x2="1" y1="0" x1="0">
      <stop offset="0" stop-color="#ad8f44"/>
      <stop offset=".2" stop-color="#ad8f44"/>
      <stop offset=".4" stop-color="#cfbb8e"/>
      <stop offset=".6" stop-color="#ad8f44"/>
      <stop offset="1" stop-color="#ad8f44"/>
    </linearGradient>
    <linearGradient id="av" gradientTransform="scale(203.95066 -203.95066) rotate(-60 0 -2)" gradientUnits="userSpaceOnUse" y2="0" x2="1" y1="0" x1="0">
      <stop offset="0" stop-color="#ad8f44"/>
      <stop offset=".2" stop-color="#ad8f44"/>
      <stop offset=".4" stop-color="#cfbb8e"/>
      <stop offset=".6" stop-color="#ad8f44"/>
      <stop offset="1" stop-color="#ad8f44"/>
    </linearGradient>
    <linearGradient id="ax" gradientTransform="scale(214.57432 -214.57432) rotate(-60 0 -2)" gradientUnits="userSpaceOnUse" y2="0" x2="1" y1="0" x1="0">
      <stop offset="0" stop-color="#ad8f44"/>
      <stop offset=".2" stop-color="#ad8f44"/>
      <stop offset=".4" stop-color="#cfbb8e"/>
      <stop offset=".6" stop-color="#ad8f44"/>
      <stop offset="1" stop-color="#ad8f44"/>
    </linearGradient>
    <linearGradient id="az" gradientTransform="scale(202.82219 -202.82219) rotate(-60 0 -2)" gradientUnits="userSpaceOnUse" y2="0" x2="1" y1="0" x1="0">
      <stop offset="0" stop-color="#ad8f44"/>
      <stop offset=".2" stop-color="#ad8f44"/>
      <stop offset=".4" stop-color="#cfbb8e"/>
      <stop offset=".6" stop-color="#ad8f44"/>
      <stop offset="1" stop-color="#ad8f44"/>
    </linearGradient>
    <linearGradient id="aB" gradientTransform="scale(205.4638 -205.4638) rotate(-60 0 -2)" gradientUnits="userSpaceOnUse" y2="0" x2="1" y1="0" x1="0">
      <stop offset="0" stop-color="#ad8f44"/>
      <stop offset=".2" stop-color="#ad8f44"/>
      <stop offset=".4" stop-color="#cfbb8e"/>
      <stop offset=".6" stop-color="#ad8f44"/>
      <stop offset="1" stop-color="#ad8f44"/>
    </linearGradient>
    <linearGradient id="aD" gradientTransform="scale(215.51408 -215.51408) rotate(-60 0 -2)" gradientUnits="userSpaceOnUse" y2="0" x2="1" y1="0" x1="0">
      <stop offset="0" stop-color="#ad8f44"/>
      <stop offset=".2" stop-color="#ad8f44"/>
      <stop offset=".4" stop-color="#cfbb8e"/>
      <stop offset=".6" stop-color="#ad8f44"/>
      <stop offset="1" stop-color="#ad8f44"/>
    </linearGradient>
    <linearGradient id="aF" gradientTransform="scale(207.24666 -207.24666) rotate(-60 0 -2)" gradientUnits="userSpaceOnUse" y2="0" x2="1" y1="0" x1="0">
      <stop offset="0" stop-color="#ad8f44"/>
      <stop offset=".2" stop-color="#ad8f44"/>
      <stop offset=".4" stop-color="#cfbb8e"/>
      <stop offset=".6" stop-color="#ad8f44"/>
      <stop offset="1" stop-color="#ad8f44"/>
    </linearGradient>
    <linearGradient id="aH" gradientTransform="scale(191.73575 -191.73575) rotate(-60 -1 -2)" gradientUnits="userSpaceOnUse" y2="0" x2="1" y1="0" x1="0">
      <stop offset="0" stop-color="#ad8f44"/>
      <stop offset=".2" stop-color="#ad8f44"/>
      <stop offset=".4" stop-color="#cfbb8e"/>
      <stop offset=".6" stop-color="#ad8f44"/>
      <stop offset="1" stop-color="#ad8f44"/>
    </linearGradient>
    <linearGradient id="aJ" gradientTransform="scale(209.15498 -209.15498) rotate(-60 0 -2)" gradientUnits="userSpaceOnUse" y2="0" x2="1" y1="0" x1="0">
      <stop offset="0" stop-color="#ad8f44"/>
      <stop offset=".2" stop-color="#ad8f44"/>
      <stop offset=".4" stop-color="#cfbb8e"/>
      <stop offset=".6" stop-color="#ad8f44"/>
      <stop offset="1" stop-color="#ad8f44"/>
    </linearGradient>
    <linearGradient id="aL" gradientTransform="scale(201.18292 -201.18292) rotate(-60 0 -2)" gradientUnits="userSpaceOnUse" y2="0" x2="1" y1="0" x1="0">
      <stop offset="0" stop-color="#ad8f44"/>
      <stop offset=".2" stop-color="#ad8f44"/>
      <stop offset=".4" stop-color="#cfbb8e"/>
      <stop offset=".6" stop-color="#ad8f44"/>
      <stop offset="1" stop-color="#ad8f44"/>
    </linearGradient>
    <linearGradient id="aN" gradientTransform="scale(210.22605 -210.22605) rotate(-60 0 -2)" gradientUnits="userSpaceOnUse" y2="0" x2="1" y1="0" x1="0">
      <stop offset="0" stop-color="#ad8f44"/>
      <stop offset=".2" stop-color="#ad8f44"/>
      <stop offset=".4" stop-color="#cfbb8e"/>
      <stop offset=".6" stop-color="#ad8f44"/>
      <stop offset="1" stop-color="#ad8f44"/>
    </linearGradient>
    <linearGradient id="aP" gradientTransform="scale(202.59115 -202.59115) rotate(-60 0 -2)" gradientUnits="userSpaceOnUse" y2="0" x2="1" y1="0" x1="0">
      <stop offset="0" stop-color="#ad8f44"/>
      <stop offset=".2" stop-color="#ad8f44"/>
      <stop offset=".4" stop-color="#cfbb8e"/>
      <stop offset=".6" stop-color="#ad8f44"/>
      <stop offset="1" stop-color="#ad8f44"/>
    </linearGradient>
    <linearGradient id="aR" gradientTransform="scale(214.47674 -214.47674) rotate(-60 0 -2)" gradientUnits="userSpaceOnUse" y2="0" x2="1" y1="0" x1="0">
      <stop offset="0" stop-color="#ad8f44"/>
      <stop offset=".2" stop-color="#ad8f44"/>
      <stop offset=".4" stop-color="#cfbb8e"/>
      <stop offset=".6" stop-color="#ad8f44"/>
      <stop offset="1" stop-color="#ad8f44"/>
    </linearGradient>
    <linearGradient id="aT" gradientTransform="scale(206.65471 -206.65471) rotate(-60 0 -2)" gradientUnits="userSpaceOnUse" y2="0" x2="1" y1="0" x1="0">
      <stop offset="0" stop-color="#ad8f44"/>
      <stop offset=".2" stop-color="#ad8f44"/>
      <stop offset=".4" stop-color="#cfbb8e"/>
      <stop offset=".6" stop-color="#ad8f44"/>
      <stop offset="1" stop-color="#ad8f44"/>
    </linearGradient>
    <linearGradient id="aV" gradientTransform="scale(205.48588 -205.48588) rotate(-60 0 -2)" gradientUnits="userSpaceOnUse" y2="0" x2="1" y1="0" x1="0">
      <stop offset="0" stop-color="#ad8f44"/>
      <stop offset=".2" stop-color="#ad8f44"/>
      <stop offset=".4" stop-color="#cfbb8e"/>
      <stop offset=".6" stop-color="#ad8f44"/>
      <stop offset="1" stop-color="#ad8f44"/>
    </linearGradient>
    <linearGradient id="aX" gradientTransform="scale(200.6746 -200.6746) rotate(-60 0 -2)" gradientUnits="userSpaceOnUse" y2="0" x2="1" y1="0" x1="0">
      <stop offset="0" stop-color="#ad8f44"/>
      <stop offset=".2" stop-color="#ad8f44"/>
      <stop offset=".4" stop-color="#cfbb8e"/>
      <stop offset=".6" stop-color="#ad8f44"/>
      <stop offset="1" stop-color="#ad8f44"/>
    </linearGradient>
    <linearGradient id="aZ" gradientTransform="scale(185.06107 -185.06107) rotate(-60 0 -3)" gradientUnits="userSpaceOnUse" y2="0" x2="1" y1="0" x1="0">
      <stop offset="0" stop-color="#ad8f44"/>
      <stop offset=".2" stop-color="#ad8f44"/>
      <stop offset=".4" stop-color="#cfbb8e"/>
      <stop offset=".6" stop-color="#ad8f44"/>
      <stop offset="1" stop-color="#ad8f44"/>
    </linearGradient>
    <linearGradient id="bb" gradientTransform="scale(216.71338 -216.71338) rotate(-60 0 -2)" gradientUnits="userSpaceOnUse" y2="0" x2="1" y1="0" x1="0">
      <stop offset="0" stop-color="#ad8f44"/>
      <stop offset=".2" stop-color="#ad8f44"/>
      <stop offset=".4" stop-color="#cfbb8e"/>
      <stop offset=".6" stop-color="#ad8f44"/>
      <stop offset="1" stop-color="#ad8f44"/>
    </linearGradient>
    <linearGradient id="bd" gradientTransform="scale(211.32377 -211.32377) rotate(-60 0 -2)" gradientUnits="userSpaceOnUse" y2="0" x2="1" y1="0" x1="0">
      <stop offset="0" stop-color="#ad8f44"/>
      <stop offset=".2" stop-color="#ad8f44"/>
      <stop offset=".4" stop-color="#cfbb8e"/>
      <stop offset=".6" stop-color="#ad8f44"/>
      <stop offset="1" stop-color="#ad8f44"/>
    </linearGradient>
    <linearGradient id="bf" gradientTransform="scale(210.8679 -210.8679) rotate(-60 0 -2)" gradientUnits="userSpaceOnUse" y2="0" x2="1" y1="0" x1="0">
      <stop offset="0" stop-color="#ad8f44"/>
      <stop offset=".2" stop-color="#ad8f44"/>
      <stop offset=".4" stop-color="#cfbb8e"/>
      <stop offset=".6" stop-color="#ad8f44"/>
      <stop offset="1" stop-color="#ad8f44"/>
    </linearGradient>
    <linearGradient id="bh" gradientTransform="scale(210.96058 -210.96058) rotate(-60 0 -2)" gradientUnits="userSpaceOnUse" y2="0" x2="1" y1="0" x1="0">
      <stop offset="0" stop-color="#ad8f44"/>
      <stop offset=".2" stop-color="#ad8f44"/>
      <stop offset=".4" stop-color="#cfbb8e"/>
      <stop offset=".6" stop-color="#ad8f44"/>
      <stop offset="1" stop-color="#ad8f44"/>
    </linearGradient>
    <linearGradient id="bj" gradientTransform="scale(205.58443 -205.58443) rotate(-60 0 -2)" gradientUnits="userSpaceOnUse" y2="0" x2="1" y1="0" x1="0">
      <stop offset="0" stop-color="#ad8f44"/>
      <stop offset=".2" stop-color="#ad8f44"/>
      <stop offset=".4" stop-color="#cfbb8e"/>
      <stop offset=".6" stop-color="#ad8f44"/>
      <stop offset="1" stop-color="#ad8f44"/>
    </linearGradient>
    <clipPath id="a">
      <path d="M345 381c0-31 23-58 53-63l1 33v18l1 8-1 12c-2-2-6-1-7-1-1 1 6-1 7 3-7-2-8-1-10 1l2-1h3l4 1v3c-4-2-9-1-13 0-2 1-5 1-6 3-1 1 3-2 10-2l-2 1h-1l-3 1c-1 0 0 0 0 0l2 1h-3-2l-3 2v1c2-1 5-3 6-2l-4 2h-1v1l-3 1c-2 0-2 1-1 1 2-1 2 1 2 1h-4c-1 1 0 1 1 1l3 1c-7-2-8 1-8 1h4l-3 1-3 2 3-1-3 2c-1 1-2 2-1 3 1-1 1-2 2-1l-1 2 1-1h2l-1 1 1-1v2l1-1v2c1-1 0-3 2-4v2h1c0 1 0 3 1 2 0 0-2-6 1-5h-1l1 1-1 2 2-3-1 2v3c0 1 0-2 3-2l-2 3 1-2 1 2v-1c0-2 1-2 2-3l-1 3h3c0 1-6 2-4 3l2-1c1 0 3-1 2 1l2-1 1 3v-4l1 2 1 3v-4c0 1 1 2 2 0h1v3h1l1-1v1s0-2 1 0v-1l1-1c-1 2 1 3 1 0l1 2 1 2v-2l1 2v-2l1 1v-2c1 2 2-2 3-2-1 1-1 4 1 1v2h2l1-1h-1 1v2l1-2h-1l1-1v1c1 1 0-1 2-1 0 3 1 3 0 0h3l1 2 1-2c1 0 1 2 2 1l-1-1 2-1c1 1 1 0 1-1v-2l1 2 1-2c2 0 0 2 2 3v-2l1-2 2 1v-1l-1-3c1 0 1 2 3 2 1 0-2-1-1-2l1-2-2-1h5l-1-1v1l-3-2c1-1 1 0 2 1v-1h1v1l-1-2 1 1c1-2-2-2-3-3h4c-2-2-10-2-12-3l6 1 2 1c0-1-1-2-5-2l-1-1v-1l2 1h2l-1-1-5 1h-3-2l-1-1h2-2-1c-2-2-1-2 0-1l1-1h-5l4-1-5 1h-2-1c0-2 2-2 3-1h1l-2-2h-1l4 1-4-2h5l-6-2 1-6-1-2c1 0 0 0 0 0l1-4v-4-4l-1-22-1-33 7-1 14 1 1 28v4l1 13 1 10h-5-1-1-1l1 1h-1 1-5l-2-1v1l-4-1 4 2h-1l-6-1h2l-1 1h-1s2-1 5 1h-2 0l-3 1h2l-2 1 2-1 2 1-1 1 1-1h1l-1 1 2-1 5 1 1 1-4-1 2 1h-5 1-1l2 1h-5 1l-1 1 4-1h1l-6 3 4-1-4 3 3-1-2 1v2l2-2 1 1-4 3c4-2 6-6 10-7l3 1-5 1h5c-2 0-7 1-6 2l4-1c-2 0-3 1-3 2l1-1v1c-1 1 0 0 0 0l-1 1c1 1 1 0 2-1l2-2c0 1-4 4-3 5 0 1 0 0 0 0l5-4h1l1-1v1h1l-5 3c0 1 2-2 9-4 2 2-7 5-6 6l2-1 5-4 1 2c-1 2-3 2-3 4l1-1 2-2 1 3c-1 0 0 0 0 0h1l-1-3 3 2-3-3-1-1 5 1s-1 0 0 0c0 1 0 0 0 0l2 1s-1-2-3-2h2v-1l1-1 2 2v-1c2 0 3 3 4 3l-2-3h2l-7-2h5s-2 0-1-1h1l1 1-3-2 6 2 1 3v-2l4 2-3-2 2 1h2l-1-1-7-3 4 1h2l-1-1h-1v-1h-1v-1l4 1h1c-1-2-4-2-6-2h5l-8-1h12l3 2c1-1-1-1-2-2-1 0 0 0 0 0l3 1c1-1-2-1-3-1l-5-1h6l-4-1h-1-1l-2-1h6-4v-1l1-1h2l-5 1v-1h2-1-2l1-1h-2v1l-2-1h-1-1l-1-1 7 1-6-1h4c1 0 2 0 1-1h-5-1l-1 1h1-6l3-1h-5l-3 2v-4l5 1-2-1-3-1v-4l-2-18-1-27c27 7 48 33 48 62 0 36-29 65-65 65-35 0-64-29-64-65"/>
    </clipPath>
    <clipPath id="c">
      <path d="M422 374h4l-2 1-2-1"/>
    </clipPath>
    <clipPath id="e">
      <path d="M438 375h2c1 0 5 0 4 1l-6-1"/>
    </clipPath>
    <clipPath id="g">
      <path d="M437 376h2l3 1-5-1"/>
    </clipPath>
    <clipPath id="i">
      <path d="M436 378h-3 3"/>
    </clipPath>
    <clipPath id="k">
      <path d="M428 384h2s5 2 3 2l-5-2"/>
    </clipPath>
    <clipPath id="m">
      <path d="M429 375v-2l3-1-3 3"/>
    </clipPath>
    <clipPath id="o">
      <path d="M429 379l4 1h-4v-1"/>
    </clipPath>
    <clipPath id="q">
      <path d="M413 382l-2 1 2-1"/>
    </clipPath>
    <clipPath id="s">
      <path d="M414 382l-1-1 2 1h-1"/>
    </clipPath>
    <clipPath id="u">
      <path d="M420 384l3-1c0 1-3 4-5 4 2-1 2-2 2-3"/>
    </clipPath>
    <clipPath id="w">
      <path d="M424 384l1-1v1l1-1v2l-3 1 1-2"/>
    </clipPath>
    <clipPath id="y">
      <path d="M430 387l-2-1c1-1 4 1 5 1h-2-1"/>
    </clipPath>
    <clipPath id="A">
      <path d="M431 382h5-5"/>
    </clipPath>
    <clipPath id="C">
      <path d="M375 414"/>
    </clipPath>
    <clipPath id="E">
      <path d="M386 411h1-1"/>
    </clipPath>
    <clipPath id="G">
      <path d="M384 402l4-1-3 1h-1"/>
    </clipPath>
    <clipPath id="I">
      <path d="M383 407l4-1-4 1m4-1"/>
    </clipPath>
    <clipPath id="K">
      <path d="M414 403l3 1-3-1"/>
    </clipPath>
    <clipPath id="M">
      <path d="M418 402h-2 4l-1 1-1-1"/>
    </clipPath>
    <clipPath id="O">
      <path d="M418 410l3 1-3-1"/>
    </clipPath>
    <clipPath id="Q">
      <path d="M418 413l2 2-2-2"/>
    </clipPath>
    <clipPath id="S">
      <path d="M413 402h1-1"/>
    </clipPath>
    <clipPath id="U">
      <path d="M421 414v0"/>
    </clipPath>
    <clipPath id="W">
      <path d="M374 412h0"/>
    </clipPath>
    <clipPath id="Y">
      <path d="M374 408v0"/>
    </clipPath>
    <clipPath id="aa">
      <path d="M376 416s0-1 0 0v0"/>
    </clipPath>
    <clipPath id="ac">
      <path d="M372 410l-3 1 3-1"/>
    </clipPath>
    <clipPath id="ae">
      <path d="M378 410l1 1-1-1"/>
    </clipPath>
    <clipPath id="ag">
      <path d="M378 414l-1 1c0-1 0-2 1-1"/>
    </clipPath>
    <clipPath id="ai">
      <path d="M372 415h0"/>
    </clipPath>
    <clipPath id="ak">
      <path d="M367 414l1-1h1l-2 1"/>
    </clipPath>
    <clipPath id="am">
      <path d="M376 407l-2-1 2 1"/>
    </clipPath>
    <clipPath id="ao">
      <path d="M392 402v-1l2 1h-2"/>
    </clipPath>
    <clipPath id="aq">
      <path d="M421 406l4 1-4-1"/>
    </clipPath>
    <clipPath id="as">
      <path d="M390 411h-2 2"/>
    </clipPath>
    <clipPath id="au">
      <path d="M390 406h1-1"/>
    </clipPath>
    <clipPath id="aw">
      <path d="M390 405l-3 1c-1-1 3-2 3-1"/>
    </clipPath>
    <clipPath id="ay">
      <path d="M394 397l-1-1 2 1h-1"/>
    </clipPath>
    <clipPath id="aA">
      <path d="M396 396h2l-1 1-1-1"/>
    </clipPath>
    <clipPath id="aC">
      <path d="M394 410h1-1"/>
    </clipPath>
    <clipPath id="aE">
      <path d="M389 401l1 1-1-1"/>
    </clipPath>
    <clipPath id="aG">
      <path d="M404 422l1-1-1 1"/>
    </clipPath>
    <clipPath id="aI">
      <path d="M405 400h-2c1 0 4 0 3 1l-1-1"/>
    </clipPath>
    <clipPath id="aK">
      <path d="M419 376v-1h1v1h-1"/>
    </clipPath>
    <clipPath id="aM">
      <path d="M421 376v-1l3 1h-2-1"/>
    </clipPath>
    <clipPath id="aO">
      <path d="M417 376v-1h1v1z"/>
    </clipPath>
    <clipPath id="aQ">
      <path d="M392 398h-2l-1 1-4-1s5 0 5-2l6 2-2 1-2-1"/>
    </clipPath>
    <clipPath id="aS">
      <path d="M411 375l1 1-1-1"/>
    </clipPath>
    <clipPath id="aU">
      <path d="M413 375l2 1h-1l-1-1"/>
    </clipPath>
    <clipPath id="aW">
      <path d="M415 375l2 1-2-1"/>
    </clipPath>
    <clipPath id="aY">
      <path d="M408 387l1-2h1l1-1-1 2-2 1"/>
    </clipPath>
    <clipPath id="ba">
      <path d="M445 378h-4l-3 1c1-3 5-1 7-1"/>
    </clipPath>
    <clipPath id="bc">
      <path d="M438 382l2-1h2l2 1h-6"/>
    </clipPath>
    <clipPath id="be">
      <path d="M418 383l3-2 2 1-2 1h-3"/>
    </clipPath>
    <clipPath id="bg">
      <path d="M432 383h5-5"/>
    </clipPath>
    <clipPath id="bi">
      <path d="M433 384l3 2-3-2"/>
    </clipPath>
  </defs>
  <g clip-path="url(#a)" transform="matrix(1.33333 0 0 -1.33333 0 794)">
    <path d="M345 381c0-31 23-58 53-63l1 33v18l1 8-1 12c-2-2-6-1-7-1-1 1 6-1 7 3-7-2-8-1-10 1l2-1h3l4 1v3c-4-2-9-1-13 0-2 1-5 1-6 3-1 1 3-2 10-2l-2 1h-1l-3 1c-1 0 0 0 0 0l2 1h-3-2l-3 2v1c2-1 5-3 6-2l-4 2h-1v1l-3 1c-2 0-2 1-1 1 2-1 2 1 2 1h-4c-1 1 0 1 1 1l3 1c-7-2-8 1-8 1h4l-3 1-3 2 3-1-3 2c-1 1-2 2-1 3 1-1 1-2 2-1l-1 2 1-1h2l-1 1 1-1v2l1-1v2c1-1 0-3 2-4v2h1c0 1 0 3 1 2 0 0-2-6 1-5h-1l1 1-1 2 2-3-1 2v3c0 1 0-2 3-2l-2 3 1-2 1 2v-1c0-2 1-2 2-3l-1 3h3c0 1-6 2-4 3l2-1c1 0 3-1 2 1l2-1 1 3v-4l1 2 1 3v-4c0 1 1 2 2 0h1v3h1l1-1v1s0-2 1 0v-1l1-1c-1 2 1 3 1 0l1 2 1 2v-2l1 2v-2l1 1v-2c1 2 2-2 3-2-1 1-1 4 1 1v2h2l1-1h-1 1v2l1-2h-1l1-1v1c1 1 0-1 2-1 0 3 1 3 0 0h3l1 2 1-2c1 0 1 2 2 1l-1-1 2-1c1 1 1 0 1-1v-2l1 2 1-2c2 0 0 2 2 3v-2l1-2 2 1v-1l-1-3c1 0 1 2 3 2 1 0-2-1-1-2l1-2-2-1h5l-1-1v1l-3-2c1-1 1 0 2 1v-1h1v1l-1-2 1 1c1-2-2-2-3-3h4c-2-2-10-2-12-3l6 1 2 1c0-1-1-2-5-2l-1-1v-1l2 1h2l-1-1-5 1h-3-2l-1-1h2-2-1c-2-2-1-2 0-1l1-1h-5l4-1-5 1h-2-1c0-2 2-2 3-1h1l-2-2h-1l4 1-4-2h5l-6-2 1-6-1-2c1 0 0 0 0 0l1-4v-4-4l-1-22-1-33 7-1 14 1 1 28v4l1 13 1 10h-5-1-1-1l1 1h-1 1-5l-2-1v1l-4-1 4 2h-1l-6-1h2l-1 1h-1s2-1 5 1h-2 0l-3 1h2l-2 1 2-1 2 1-1 1 1-1h1l-1 1 2-1 5 1 1 1-4-1 2 1h-5 1-1l2 1h-5 1l-1 1 4-1h1l-6 3 4-1-4 3 3-1-2 1v2l2-2 1 1-4 3c4-2 6-6 10-7l3 1-5 1h5c-2 0-7 1-6 2l4-1c-2 0-3 1-3 2l1-1v1c-1 1 0 0 0 0l-1 1c1 1 1 0 2-1l2-2c0 1-4 4-3 5 0 1 0 0 0 0l5-4h1l1-1v1h1l-5 3c0 1 2-2 9-4 2 2-7 5-6 6l2-1 5-4 1 2c-1 2-3 2-3 4l1-1 2-2 1 3c-1 0 0 0 0 0h1l-1-3 3 2-3-3-1-1 5 1s-1 0 0 0c0 1 0 0 0 0l2 1s-1-2-3-2h2v-1l1-1 2 2v-1c2 0 3 3 4 3l-2-3h2l-7-2h5s-2 0-1-1h1l1 1-3-2 6 2 1 3v-2l4 2-3-2 2 1h2l-1-1-7-3 4 1h2l-1-1h-1v-1h-1v-1l4 1h1c-1-2-4-2-6-2h5l-8-1h12l3 2c1-1-1-1-2-2-1 0 0 0 0 0l3 1c1-1-2-1-3-1l-5-1h6l-4-1h-1-1l-2-1h6-4v-1l1-1h2l-5 1v-1h2-1-2l1-1h-2v1l-2-1h-1-1l-1-1 7 1-6-1h4c1 0 2 0 1-1h-5-1l-1 1h1-6l3-1h-5l-3 2v-4l5 1-2-1-3-1v-4l-2-18-1-27c27 7 48 33 48 62 0 36-29 65-65 65-35 0-64-29-64-65" fill="url(#b)"/>
  </g>
  <g clip-path="url(#c)" transform="matrix(1.33333 0 0 -1.33333 0 794)">
    <path d="M422 374h4l-2 1-2-1" fill="url(#d)"/>
  </g>
  <g clip-path="url(#e)" transform="matrix(1.33333 0 0 -1.33333 0 794)">
    <path d="M438 375h2c1 0 5 0 4 1l-6-1" fill="url(#f)"/>
  </g>
  <g clip-path="url(#g)" transform="matrix(1.33333 0 0 -1.33333 0 794)">
    <path d="M437 376h2l3 1-5-1" fill="url(#h)"/>
  </g>
  <g clip-path="url(#i)" transform="matrix(1.33333 0 0 -1.33333 0 794)">
    <path d="M436 378h-3 3" fill="url(#j)"/>
  </g>
  <g clip-path="url(#k)" transform="matrix(1.33333 0 0 -1.33333 0 794)">
    <path d="M428 384h2s5 2 3 2l-5-2" fill="url(#l)"/>
  </g>
  <g clip-path="url(#m)" transform="matrix(1.33333 0 0 -1.33333 0 794)">
    <path d="M429 375v-2l3-1-3 3" fill="url(#n)"/>
  </g>
  <g clip-path="url(#o)" transform="matrix(1.33333 0 0 -1.33333 0 794)">
    <path d="M429 379l4 1h-4v-1" fill="url(#p)"/>
  </g>
  <g clip-path="url(#q)" transform="matrix(1.33333 0 0 -1.33333 0 794)">
    <path d="M413 382l-2 1 2-1" fill="url(#r)"/>
  </g>
  <g clip-path="url(#s)" transform="matrix(1.33333 0 0 -1.33333 0 794)">
    <path d="M414 382l-1-1 2 1h-1" fill="url(#t)"/>
  </g>
  <g clip-path="url(#u)" transform="matrix(1.33333 0 0 -1.33333 0 794)">
    <path d="M420 384l3-1c0 1-3 4-5 4 2-1 2-2 2-3" fill="url(#v)"/>
  </g>
  <g clip-path="url(#w)" transform="matrix(1.33333 0 0 -1.33333 0 794)">
    <path d="M424 384l1-1v1l1-1v2l-3 1 1-2" fill="url(#x)"/>
  </g>
  <g clip-path="url(#y)" transform="matrix(1.33333 0 0 -1.33333 0 794)">
    <path d="M430 387l-2-1c1-1 4 1 5 1h-2-1" fill="url(#z)"/>
  </g>
  <g clip-path="url(#A)" transform="matrix(1.33333 0 0 -1.33333 0 794)">
    <path d="M431 382h5-5" fill="url(#B)"/>
  </g>
  <g clip-path="url(#C)" transform="matrix(1.33333 0 0 -1.33333 0 794)">
    <path d="M375 414" fill="url(#D)"/>
  </g>
  <g clip-path="url(#E)" transform="matrix(1.33333 0 0 -1.33333 0 794)">
    <path d="M386 411h1-1" fill="url(#F)"/>
  </g>
  <g clip-path="url(#G)" transform="matrix(1.33333 0 0 -1.33333 0 794)">
    <path d="M384 402l4-1-3 1h-1" fill="url(#H)"/>
  </g>
  <g clip-path="url(#I)" transform="matrix(1.33333 0 0 -1.33333 0 794)">
    <path d="M383 407l4-1-4 1m4-1" fill="url(#J)"/>
  </g>
  <g clip-path="url(#K)" transform="matrix(1.33333 0 0 -1.33333 0 794)">
    <path d="M414 403l3 1-3-1" fill="url(#L)"/>
  </g>
  <g clip-path="url(#M)" transform="matrix(1.33333 0 0 -1.33333 0 794)">
    <path d="M418 402h-2 4l-1 1-1-1" fill="url(#N)"/>
  </g>
  <g clip-path="url(#O)" transform="matrix(1.33333 0 0 -1.33333 0 794)">
    <path d="M418 410l3 1-3-1" fill="url(#P)"/>
  </g>
  <g clip-path="url(#Q)" transform="matrix(1.33333 0 0 -1.33333 0 794)">
    <path d="M418 413l2 2-2-2" fill="url(#R)"/>
  </g>
  <g clip-path="url(#S)" transform="matrix(1.33333 0 0 -1.33333 0 794)">
    <path d="M413 402h1-1" fill="url(#T)"/>
  </g>
  <g clip-path="url(#U)" transform="matrix(1.33333 0 0 -1.33333 0 794)">
    <path d="M421 414v0" fill="url(#V)"/>
  </g>
  <g clip-path="url(#W)" transform="matrix(1.33333 0 0 -1.33333 0 794)">
    <path d="M374 412h0" fill="url(#X)"/>
  </g>
  <g clip-path="url(#Y)" transform="matrix(1.33333 0 0 -1.33333 0 794)">
    <path d="M374 408v0" fill="url(#Z)"/>
  </g>
  <g clip-path="url(#aa)" transform="matrix(1.33333 0 0 -1.33333 0 794)">
    <path d="M376 416s0-1 0 0v0" fill="url(#ab)"/>
  </g>
  <g clip-path="url(#ac)" transform="matrix(1.33333 0 0 -1.33333 0 794)">
    <path d="M372 410l-3 1 3-1" fill="url(#ad)"/>
  </g>
  <g clip-path="url(#ae)" transform="matrix(1.33333 0 0 -1.33333 0 794)">
    <path d="M378 410l1 1-1-1" fill="url(#af)"/>
  </g>
  <g clip-path="url(#ag)" transform="matrix(1.33333 0 0 -1.33333 0 794)">
    <path d="M378 414l-1 1c0-1 0-2 1-1" fill="url(#ah)"/>
  </g>
  <g clip-path="url(#ai)" transform="matrix(1.33333 0 0 -1.33333 0 794)">
    <path d="M372 415h0" fill="url(#aj)"/>
  </g>
  <g clip-path="url(#ak)" transform="matrix(1.33333 0 0 -1.33333 0 794)">
    <path d="M367 414l1-1h1l-2 1" fill="url(#al)"/>
  </g>
  <g clip-path="url(#am)" transform="matrix(1.33333 0 0 -1.33333 0 794)">
    <path d="M376 407l-2-1 2 1" fill="url(#an)"/>
  </g>
  <g clip-path="url(#ao)" transform="matrix(1.33333 0 0 -1.33333 0 794)">
    <path d="M392 402v-1l2 1h-2" fill="url(#ap)"/>
  </g>
  <g clip-path="url(#aq)" transform="matrix(1.33333 0 0 -1.33333 0 794)">
    <path d="M421 406l4 1-4-1" fill="url(#ar)"/>
  </g>
  <g clip-path="url(#as)" transform="matrix(1.33333 0 0 -1.33333 0 794)">
    <path d="M390 411h-2 2" fill="url(#at)"/>
  </g>
  <g clip-path="url(#au)" transform="matrix(1.33333 0 0 -1.33333 0 794)">
    <path d="M390 406h1-1" fill="url(#av)"/>
  </g>
  <g clip-path="url(#aw)" transform="matrix(1.33333 0 0 -1.33333 0 794)">
    <path d="M390 405l-3 1c-1-1 3-2 3-1" fill="url(#ax)"/>
  </g>
  <g clip-path="url(#ay)" transform="matrix(1.33333 0 0 -1.33333 0 794)">
    <path d="M394 397l-1-1 2 1h-1" fill="url(#az)"/>
  </g>
  <g clip-path="url(#aA)" transform="matrix(1.33333 0 0 -1.33333 0 794)">
    <path d="M396 396h2l-1 1-1-1" fill="url(#aB)"/>
  </g>
  <g clip-path="url(#aC)" transform="matrix(1.33333 0 0 -1.33333 0 794)">
    <path d="M394 410h1-1" fill="url(#aD)"/>
  </g>
  <g clip-path="url(#aE)" transform="matrix(1.33333 0 0 -1.33333 0 794)">
    <path d="M389 401l1 1-1-1" fill="url(#aF)"/>
  </g>
  <g clip-path="url(#aG)" transform="matrix(1.33333 0 0 -1.33333 0 794)">
    <path d="M404 422l1-1-1 1" fill="url(#aH)"/>
  </g>
  <g clip-path="url(#aI)" transform="matrix(1.33333 0 0 -1.33333 0 794)">
    <path d="M405 400h-2c1 0 4 0 3 1l-1-1" fill="url(#aJ)"/>
  </g>
  <g clip-path="url(#aK)" transform="matrix(1.33333 0 0 -1.33333 0 794)">
    <path d="M419 376v-1h1v1h-1" fill="url(#aL)"/>
  </g>
  <g clip-path="url(#aM)" transform="matrix(1.33333 0 0 -1.33333 0 794)">
    <path d="M421 376v-1l3 1h-2-1" fill="url(#aN)"/>
  </g>
  <g clip-path="url(#aO)" transform="matrix(1.33333 0 0 -1.33333 0 794)">
    <path d="M417 376v-1h1v1z" fill="url(#aP)"/>
  </g>
  <g clip-path="url(#aQ)" transform="matrix(1.33333 0 0 -1.33333 0 794)">
    <path d="M392 398h-2l-1 1-4-1s5 0 5-2l6 2-2 1-2-1" fill="url(#aR)"/>
  </g>
  <g clip-path="url(#aS)" transform="matrix(1.33333 0 0 -1.33333 0 794)">
    <path d="M411 375l1 1-1-1" fill="url(#aT)"/>
  </g>
  <g clip-path="url(#aU)" transform="matrix(1.33333 0 0 -1.33333 0 794)">
    <path d="M413 375l2 1h-1l-1-1" fill="url(#aV)"/>
  </g>
  <g clip-path="url(#aW)" transform="matrix(1.33333 0 0 -1.33333 0 794)">
    <path d="M415 375l2 1-2-1" fill="url(#aX)"/>
  </g>
  <g clip-path="url(#aY)" transform="matrix(1.33333 0 0 -1.33333 0 794)">
    <path d="M408 387l1-2h1l1-1-1 2-2 1" fill="url(#aZ)"/>
  </g>
  <g clip-path="url(#ba)" transform="matrix(1.33333 0 0 -1.33333 0 794)">
    <path d="M445 378h-4l-3 1c1-3 5-1 7-1" fill="url(#bb)"/>
  </g>
  <g clip-path="url(#bc)" transform="matrix(1.33333 0 0 -1.33333 0 794)">
    <path d="M438 382l2-1h2l2 1h-6" fill="url(#bd)"/>
  </g>
  <g clip-path="url(#be)" transform="matrix(1.33333 0 0 -1.33333 0 794)">
    <path d="M418 383l3-2 2 1-2 1h-3" fill="url(#bf)"/>
  </g>
  <g clip-path="url(#bg)" transform="matrix(1.33333 0 0 -1.33333 0 794)">
    <path d="M432 383h5-5" fill="url(#bh)"/>
  </g>
  <g clip-path="url(#bi)" transform="matrix(1.33333 0 0 -1.33333 0 794)">
    <path d="M433 384l3 2-3-2" fill="url(#bj)"/>
  </g>
</svg>
